<?xml version="1.0" standalone="no"?>
<!DOCTYPE svg PUBLIC "-//W3C//DTD SVG 20010904//EN"
 "http://www.w3.org/TR/2001/REC-SVG-20010904/DTD/svg10.dtd">
<svg version="1.0" xmlns="http://www.w3.org/2000/svg"
 width="1024.000000pt" height="1024.000000pt" viewBox="0 0 1024.000000 1024.000000"
 preserveAspectRatio="xMidYMid meet">

<g transform="translate(0.000000,1024.000000) scale(0.100000,-0.100000)"
fill="#416b44" stroke="none">
<path d="M4435 8931 c-112 -24 -147 -37 -248 -89 -100 -50 -219 -155 -282
-247 -34 -49 -42 -55 -74 -55 -117 -1 -285 -68 -398 -160 -161 -130 -263 -351
-263 -568 l0 -79 -91 -59 c-109 -71 -240 -203 -300 -304 -95 -161 -134 -315
-127 -509 4 -100 10 -138 28 -185 63 -163 236 -229 396 -151 30 15 85 55 124
91 78 72 108 84 145 60 47 -31 35 -64 -53 -148 -93 -88 -148 -127 -245 -173
-99 -48 -145 -54 -383 -55 l-207 -2 -25 32 c-48 61 -139 90 -222 70 -204 -49
-246 -319 -66 -425 79 -46 181 -43 257 8 30 20 72 71 81 98 2 6 39 6 100 2
l98 -8 4 -150 c5 -204 42 -358 120 -501 39 -71 37 -74 -43 -74 -44 0 -50 3
-72 37 -75 115 -281 110 -368 -9 -106 -144 -17 -350 162 -374 90 -13 188 36
228 112 l24 44 240 0 c387 0 428 20 524 249 59 138 111 181 161 131 24 -24 26
-57 5 -87 -8 -12 -35 -70 -60 -129 -53 -125 -85 -170 -232 -325 -59 -63 -141
-151 -181 -196 l-73 -81 -72 5 c-61 5 -81 2 -125 -17 -91 -39 -142 -116 -142
-215 0 -138 94 -229 236 -230 61 0 77 4 119 30 74 46 107 100 114 185 6 70 6
71 75 150 39 44 73 80 78 80 4 0 8 -15 8 -34 0 -52 47 -202 88 -281 44 -85
162 -207 241 -249 30 -16 85 -39 123 -51 58 -18 72 -28 99 -66 51 -71 140
-158 202 -195 212 -130 509 -150 698 -47 68 37 165 143 201 219 51 109 58 186
58 607 l-1 379 -123 401 c-194 629 -288 938 -300 986 l-12 45 -58 -150 c-93
-238 -117 -292 -136 -309 -16 -15 -64 -16 -437 -16 l-418 1 -22 26 c-30 33
-29 66 1 101 l24 28 370 0 371 0 123 313 c68 172 131 322 141 333 24 25 80 25
104 0 10 -11 56 -141 101 -288 45 -147 145 -470 221 -716 l138 -448 33 93 c18
51 134 359 257 683 243 641 245 645 318 645 68 0 80 -22 151 -275 35 -127 78
-278 95 -337 l31 -107 28 28 c74 74 134 82 550 79 l342 -3 24 -28 c29 -34 31
-66 4 -100 l-20 -26 -363 -3 c-356 -3 -363 -3 -410 -26 -28 -14 -59 -41 -78
-67 -46 -64 -97 -84 -152 -61 -20 8 -43 25 -51 38 -13 20 -144 489 -158 563
-2 11 -36 -67 -77 -175 -41 -107 -123 -323 -183 -480 -60 -157 -138 -370 -174
-475 l-65 -190 1 -425 c1 -470 5 -514 62 -630 41 -84 140 -184 228 -227 210
-106 575 -108 895 -7 166 52 394 180 508 284 180 165 320 448 343 696 l6 70
60 33 c73 40 195 154 254 237 58 81 119 211 145 309 28 105 37 334 16 449
l-14 80 33 70 c83 182 109 307 109 536 0 190 -12 269 -64 423 -56 163 -129
284 -252 412 l-78 81 -10 82 c-40 315 -209 565 -483 711 -70 38 -221 91 -256
91 -11 0 -40 35 -77 92 -212 325 -597 522 -990 505 -157 -7 -235 -31 -304 -93
-58 -52 -105 -140 -121 -224 -7 -36 -10 -466 -10 -1254 1 -718 -2 -1202 -8
-1208 -5 -5 -44 -8 -88 -6 l-79 3 -12 35 c-9 26 -12 323 -13 1190 0 952 -3
1167 -14 1221 -37 174 -156 300 -310 328 -88 16 -259 12 -351 -8z m-71 -860
c38 -40 30 -66 -34 -114 -101 -76 -147 -176 -137 -298 11 -134 88 -225 224
-265 28 -8 57 -21 63 -29 18 -22 15 -63 -6 -86 -60 -66 -295 57 -363 189 -90
177 -57 405 80 541 47 48 109 91 129 91 9 0 29 -13 44 -29z m2412 -96 c25 -25
25 -25 24 -212 l-2 -188 196 4 c145 2 200 0 211 -9 23 -19 22 -412 -1 -431
-13 -10 -60 -13 -213 -10 l-196 3 0 -195 c0 -150 -3 -198 -14 -210 -20 -25
-381 -25 -405 -1 -14 13 -16 47 -16 213 l0 198 -47 -3 c-27 -2 -115 -5 -197
-8 -200 -5 -186 -22 -186 227 0 179 1 195 19 212 18 15 40 17 215 14 l196 -4
0 197 c0 192 1 197 22 212 18 13 55 16 196 16 171 0 173 0 198 -25z m-3151
-736 c31 -25 30 -45 -5 -145 -19 -52 -20 -67 -11 -102 7 -23 24 -55 38 -73 29
-34 114 -79 149 -79 57 0 75 -102 23 -127 -59 -29 -232 57 -293 145 -32 47
-56 120 -56 173 0 59 38 169 70 201 34 34 49 35 85 7z m3565 -1901 c-32 -190
-181 -355 -365 -403 -73 -19 -193 -19 -261 -1 -104 28 -253 109 -163 88 19 -4
97 -7 174 -7 109 0 152 4 195 19 211 70 352 227 416 461 14 51 17 -78 4 -157z
m-2796 -129 c31 -24 35 -68 9 -91 -10 -9 -44 -28 -76 -44 -116 -56 -176 -142
-185 -265 -6 -85 16 -162 63 -216 35 -41 98 -84 145 -98 64 -19 77 -65 31
-109 -29 -28 -30 -28 -79 -14 -60 18 -150 76 -193 126 -54 62 -90 151 -96 242
-14 205 72 361 250 450 44 22 85 40 92 40 7 0 24 -9 39 -21z"/>
<path d="M1383 2876 c-131 -32 -242 -123 -282 -231 -26 -69 -28 -181 -5 -249
21 -62 99 -145 171 -183 32 -17 116 -50 188 -74 180 -61 235 -105 235 -193 0
-91 -75 -146 -201 -146 -108 0 -185 23 -285 86 l-51 32 -49 -100 c-57 -115
-61 -104 61 -163 182 -88 421 -93 579 -13 60 31 133 105 163 167 25 50 28 67
28 161 0 90 -3 111 -23 148 -53 99 -149 161 -352 227 -127 41 -167 61 -205
106 -47 56 -28 155 36 189 73 39 210 29 326 -25 42 -19 77 -34 79 -32 2 1 22
43 45 92 24 50 45 93 46 96 7 13 -165 90 -233 104 -83 18 -200 18 -271 1z"/>
<path d="M4711 2880 c-125 -27 -241 -114 -289 -218 -22 -48 -27 -71 -27 -147
0 -111 25 -173 94 -238 55 -51 115 -81 275 -136 135 -46 195 -78 221 -118 26
-39 25 -115 -1 -151 -72 -98 -282 -97 -449 3 -70 42 -63 47 -127 -79 -45 -89
-49 -78 52 -131 174 -89 380 -106 543 -45 167 62 251 181 252 355 0 68 -4 89
-28 137 -52 107 -136 162 -355 233 -125 41 -149 52 -188 89 -41 39 -44 46 -44
94 0 39 5 57 25 81 61 72 217 75 364 5 41 -19 75 -33 76 -32 2 2 24 45 50 97
37 74 44 96 33 103 -37 25 -129 68 -178 82 -65 20 -237 29 -299 16z"/>
<path d="M2221 2242 c-123 -339 -226 -623 -229 -629 -3 -10 26 -13 126 -13
l130 0 41 115 c22 64 44 127 47 140 l6 25 247 0 247 0 28 -87 c16 -49 37 -112
48 -140 l19 -53 135 0 c74 0 134 3 134 6 0 4 -104 287 -232 630 l-232 624
-146 0 -145 0 -224 -618z m454 107 c44 -128 81 -238 83 -245 3 -11 -28 -14
-168 -14 -134 0 -171 3 -168 13 10 41 164 477 168 477 3 0 41 -104 85 -231z"/>
<path d="M3320 2230 l0 -630 125 0 125 0 0 214 0 214 178 4 c244 7 332 37 435
147 79 84 92 123 92 281 0 129 -1 138 -28 188 -52 99 -146 168 -268 197 -49
11 -131 15 -361 15 l-298 0 0 -630z m561 409 c94 -20 150 -93 148 -194 -1 -75
-32 -130 -94 -167 -36 -21 -55 -23 -198 -28 -87 -3 -161 -3 -163 -1 -2 2 -4
94 -4 203 l0 198 130 0 c71 0 152 -5 181 -11z"/>
<path d="M5750 2549 c-220 -39 -360 -222 -360 -472 0 -253 126 -425 348 -477
69 -16 204 -16 273 0 60 14 179 72 204 100 16 17 14 22 -30 82 -25 34 -49 63
-53 63 -4 0 -37 -15 -74 -34 -51 -25 -85 -35 -136 -39 -154 -11 -259 57 -287
186 l-7 32 315 0 316 0 6 55 c9 67 -7 184 -36 259 -67 182 -265 283 -479 245z
m158 -185 c55 -22 91 -62 107 -118 26 -87 40 -81 -182 -79 l-198 2 3 28 c2 15
16 51 31 78 22 38 41 56 81 78 59 31 104 34 158 11z"/>
<path d="M7717 2549 c-78 -11 -171 -54 -207 -96 -45 -51 -62 -99 -63 -179 -1
-161 79 -233 320 -289 62 -15 123 -35 137 -46 53 -42 37 -127 -29 -155 -73
-30 -220 -10 -321 45 l-51 28 -41 -83 c-45 -90 -46 -87 23 -122 146 -73 335
-85 480 -31 72 27 149 97 172 157 26 69 24 164 -6 225 -42 86 -114 124 -346
183 -82 21 -115 48 -115 96 0 78 65 108 190 88 41 -7 101 -23 133 -35 l57 -24
40 79 c22 44 40 81 40 84 0 2 -24 13 -52 25 -116 46 -256 65 -361 50z"/>
<path d="M8640 2549 c-84 -15 -174 -61 -233 -121 -176 -176 -182 -516 -11
-698 93 -99 206 -143 368 -142 122 1 204 23 295 82 l62 40 -47 68 c-26 37 -48
68 -49 70 -1 1 -37 -14 -79 -34 -196 -93 -388 -28 -422 145 l-6 31 317 0 317
0 -4 123 c-5 137 -22 194 -84 284 -83 120 -255 182 -424 152z m153 -183 c21
-8 47 -22 57 -31 26 -23 58 -92 62 -133 l3 -32 -198 -3 c-140 -1 -197 1 -197
9 0 6 7 31 15 55 42 119 147 174 258 135z"/>
<path d="M6845 2537 c-66 -22 -121 -54 -148 -87 -14 -16 -28 -30 -31 -30 -4 0
-3 25 0 55 l7 55 -122 0 -121 0 0 -465 0 -465 120 0 120 0 0 305 c0 348 2 360
81 412 59 39 150 44 199 11 19 -13 44 -41 55 -63 19 -37 20 -63 23 -352 l3
-313 120 0 120 0 -3 363 c-4 404 -6 416 -75 496 -55 65 -102 84 -213 88 -60 2
-110 -2 -135 -10z"/>
</g>
</svg>
